<svg xmlns="http://www.w3.org/2000/svg" xmlns:xlink="http://www.w3.org/1999/xlink" version="1.1" x="0px" y="0px" viewBox="0 0 100 125" enable-background="new 0 0 100 100" xml:space="preserve"><style>path{fill:#8DD3DC}</style><g><path d="M89.6,80.7l-12.7-11c-0.4-0.4-1-0.4-1.3,0c-0.3,0.4-0.9,0.4-1.3,0l-2.9-2.5c-0.4-0.4-1-0.4-1.3,0l-1.8,2.2   c-0.3,0.4-0.2,1,0.2,1.3l2.9,2.5c0.4,0.4,0.5,1,0.2,1.3c-0.3,0.4-0.2,1,0.2,1.3l12.7,11c0.4,0.4,1,0.4,1.3,0l3.9-4.9   C90.1,81.7,90,81,89.6,80.7z"/><path d="M66.3,21.7C59.9,15.2,51.4,12,43,12s-16.9,3.2-23.3,9.7c-12.9,12.9-12.9,33.8,0,46.7C26.1,74.8,34.6,78,43,78   s16.9-3.2,23.3-9.7C79.2,55.4,79.2,34.6,66.3,21.7z M63.5,65.5C58,71,50.7,74,43,74s-15-3-20.5-8.5c-11.3-11.3-11.3-29.7,0-41   C28,19,35.3,16,43,16s15,3,20.5,8.5C74.8,35.8,74.8,54.2,63.5,65.5z"/></g></svg>