<svg xmlns="http://www.w3.org/2000/svg" xmlns:xlink="http://www.w3.org/1999/xlink" version="1.1" x="0px" y="0px" viewBox="0 0 100 125" enable-background="new 0 0 100 100" xml:space="preserve"><style>path,circle{fill:#8DD3DC}</style><g><circle cx="80.625" cy="79.375" r="1.625"/><path d="M85.433,74.322L61.395,51.526l27.297-24.176l-9.937-11.221l-28.5,24.833l-3.28-3.111c2.026-6.583-0.34-14.239-6.074-19.353   c-3.254-2.902-7.534-4.5-12.051-4.5c-2.689,0-5.338,0.542-7.871,1.613l-2.125,0.898l11.527,10.812l-5.945,6.667L12.602,22.883   l-0.459,2.769c-0.917,5.521,0.012,13.749,5.643,18.77c3.558,3.173,8.149,4.921,12.928,4.921c2.514,0,4.971-0.496,7.172-1.44   l2.402,2.278L12.052,75.187l9.946,11.229l29.215-25.875L76.38,84.406c1.317,1.174,3.021,1.82,4.795,1.821h0.001   c1.952,0,3.775-0.788,5.002-2.163C88.622,81.324,88.266,76.848,85.433,74.322z M78.481,20.346l5.976,6.748l-2.779,2.461   l-1.616-1.616l-2.121,2.121l1.487,1.487l-1.992,1.765l-1.374-1.373l-2.121,2.121l1.245,1.245l-2.523,2.235l-1.601-1.601   l-2.121,2.121l1.472,1.472l-2.522,2.234l-1.828-1.827l-2.121,2.121l1.699,1.699l-3.054,2.705l-1.524-1.524l-2.121,2.121   l1.396,1.396l-1.126,0.998l-6.769-6.419L78.481,20.346z M48.267,59.145l-1.205-1.205l-2.121,2.121l1.076,1.076l-1.462,1.295   l-1.493-1.492l-2.121,2.121l1.364,1.363l-1.993,1.766l-1.25-1.25l-2.121,2.121l1.122,1.121l-2.523,2.234l-1.478-1.477l-2.121,2.121   l1.349,1.348l-2.523,2.235l-1.705-1.704l-2.121,2.121l1.576,1.575l-2.523,2.234l-1.932-1.931l-2.121,2.121l1.803,1.802   l-1.489,1.319l-5.968-6.738l26.186-23.191l6.557,6.218L48.267,59.145z M83.939,82.068c-0.657,0.736-1.665,1.159-2.764,1.159h-0.001   c-1.037-0.001-2.031-0.377-2.765-1.03L38.439,44.294l-0.943,0.48c-2.019,1.026-4.363,1.569-6.783,1.569   c-4.041,0-7.924-1.478-10.932-4.16c-3.615-3.224-5.02-8.467-4.941-13.086l9.787,9.185l9.939-11.147L24.4,17.598   c1.464-0.395,2.97-0.6,4.449-0.6c3.779,0,7.351,1.328,10.055,3.74c5.093,4.541,7.076,11.375,4.937,17.006l-0.354,0.934   l39.916,37.854C85.026,77.979,85.277,80.567,83.939,82.068z"/></g></svg>