<svg xmlns="http://www.w3.org/2000/svg" xmlns:xlink="http://www.w3.org/1999/xlink" version="1.1" x="0px" y="0px" viewBox="0 0 100 125" enable-background="new 0 0 100 100" xml:space="preserve"><style>path{fill:#8DD3DC}</style><path d="M87.966,54.235c-0.198-0.611-0.707-1.07-1.336-1.207l-10.629-2.299l-3.868-6.639l1.57-1.76  c0.429-0.479,0.569-1.15,0.371-1.762c-0.199-0.613-0.708-1.072-1.337-1.209l-13.977-3.027l-7.197-12.357  c-0.324-0.557-0.919-0.898-1.562-0.898s-1.238,0.342-1.562,0.898l-7.195,12.357L27.264,39.36c-0.629,0.137-1.138,0.596-1.337,1.209  c-0.199,0.611-0.057,1.283,0.371,1.764l1.57,1.756l-3.869,6.641L13.37,53.028c-0.629,0.137-1.138,0.596-1.336,1.207  c-0.199,0.613-0.059,1.285,0.37,1.764l7.247,8.113l-1.096,10.82c-0.064,0.641,0.215,1.266,0.736,1.645  c0.52,0.377,1.204,0.453,1.791,0.191l9.951-4.385l9.951,4.385c0.232,0.104,0.481,0.154,0.729,0.154c0.375,0,0.748-0.117,1.062-0.346  c0.521-0.377,0.801-1.004,0.736-1.645l-0.85-8.406l7.338-3.232l7.337,3.232l-0.851,8.406c-0.064,0.641,0.216,1.268,0.736,1.645  c0.314,0.229,0.688,0.346,1.062,0.346c0.247,0,0.496-0.051,0.729-0.154l9.951-4.385l9.951,4.385  c0.587,0.262,1.271,0.186,1.791-0.191c0.521-0.379,0.801-1.004,0.736-1.645l-1.096-10.82l7.247-8.113  C88.024,55.521,88.165,54.849,87.966,54.235z M39.603,72.208l-7.84-3.453c-0.232-0.104-0.48-0.154-0.729-0.154  s-0.496,0.051-0.729,0.154l-7.84,3.453l0.863-8.523c0.051-0.506-0.112-1.008-0.45-1.387l-5.71-6.391l8.373-1.811  c0.496-0.107,0.925-0.42,1.181-0.857l3.688-6.305l5.418,6.062l-1.439,14.227c-0.065,0.639,0.216,1.266,0.736,1.645  s1.204,0.451,1.792,0.191l2.267-1L39.603,72.208z M50.001,59.511c-0.248,0-0.496,0.051-0.729,0.152l-10.974,4.836l1.207-11.93  c0.052-0.506-0.112-1.008-0.45-1.387l-7.992-8.945L42.787,39.7c0.496-0.107,0.925-0.42,1.18-0.857l6.034-10.365l6.036,10.365  c0.256,0.438,0.684,0.75,1.18,0.857l11.722,2.537l-7.988,8.945c-0.338,0.379-0.501,0.881-0.45,1.387l1.205,11.93L50.73,59.663  C50.497,59.562,50.249,59.511,50.001,59.511z M77.121,62.298c-0.338,0.379-0.501,0.881-0.45,1.387l0.863,8.523l-7.84-3.453  c-0.232-0.104-0.48-0.154-0.729-0.154s-0.496,0.051-0.729,0.154l-7.84,3.453l0.419-4.148l2.27,1  c0.234,0.104,0.482,0.152,0.729,0.152c0.376,0,0.748-0.115,1.062-0.344c0.521-0.379,0.801-1.006,0.736-1.645l-1.437-14.227  l5.413-6.061l3.687,6.303c0.256,0.438,0.685,0.75,1.181,0.857l8.373,1.811L77.121,62.298z"/></svg>